<svg version="1.1" id="Layer_1" xmlns="http://www.w3.org/2000/svg" xmlns:xlink="http://www.w3.org/1999/xlink" x="0px" y="0px"
	 width="100%" viewBox="0 0 1024 1024" enable-background="new 0 0 1024 1024" xml:space="preserve">
<path fill="#000000" opacity="1.000000" stroke="none" 
	d="
M836.010193,583.994080 
	C840.765015,588.765320 844.536499,593.788818 847.242371,599.615051 
	C851.314575,608.383301 851.907410,617.240723 846.157227,625.253418 
	C840.455627,633.198425 832.050598,634.652466 822.555420,633.645752 
	C788.797363,630.066284 755.412354,623.820679 721.543823,620.452515 
	C728.222229,622.172791 734.871826,624.015442 741.584290,625.590698 
	C762.811035,630.572083 784.108459,635.281250 804.925293,641.839600 
	C808.878662,643.085022 812.794800,644.646057 816.457764,646.574890 
	C823.756958,650.418579 824.479492,655.466919 818.463196,661.240601 
	C812.165955,667.283997 804.670227,671.667480 796.898682,675.575378 
	C767.817810,690.198975 736.786560,698.995728 705.233398,706.200745 
	C672.738770,713.620789 639.835876,718.286011 606.663818,721.543640 
	C573.461792,724.804321 540.207825,725.896057 506.893097,725.971802 
	C499.387329,725.988892 491.860931,725.405457 485.337799,720.908447 
	C478.095215,715.915222 474.470459,709.487488 474.943848,700.232117 
	C475.478607,689.777832 474.747833,679.254578 474.431702,668.765381 
	C474.384247,667.190979 474.246826,665.440308 472.925201,663.861389 
	C470.900818,664.486694 470.644592,666.419189 469.917633,667.971375 
	C463.983429,680.641174 458.220947,693.395203 452.065826,705.956787 
	C445.434540,719.490173 436.720154,723.895996 421.736206,722.581909 
	C386.566132,719.497437 351.607239,714.969727 317.129517,707.272034 
	C297.128723,702.806641 277.351624,697.465698 258.669403,688.785156 
	C253.227844,686.256836 247.879868,683.450256 243.593582,679.131287 
	C238.978897,674.481445 239.337952,669.952454 244.639450,666.045166 
	C249.508194,662.456848 255.124619,660.190063 260.694305,658.016724 
	C284.440094,648.750793 308.839844,641.346680 332.880066,632.914856 
	C336.632477,631.598694 340.363861,630.222473 343.950592,628.330750 
	C324.153412,632.474243 304.374207,636.706177 284.554260,640.737976 
	C261.719543,645.382996 238.848633,649.823120 215.723831,652.865295 
	C197.403122,655.275391 185.384872,649.111084 177.900299,633.033508 
	C168.977753,613.867065 180.137527,587.584045 200.047546,581.015442 
	C202.080688,580.344727 204.268951,579.821045 206.392075,579.795410 
	C232.734848,579.476929 259.001038,580.912964 285.207489,583.518433 
	C286.785858,583.675354 288.620758,583.355774 289.748322,584.990417 
	C287.439819,593.130005 288.108215,593.903809 296.823700,594.021667 
	C307.816101,594.170410 318.818512,593.549377 329.804321,594.485474 
	C331.248077,594.608398 332.803467,594.299133 334.206543,593.864929 
	C339.507355,592.224548 340.741028,588.712280 337.167328,584.523315 
	C330.353058,576.535889 323.418457,568.677673 317.801239,559.743103 
	C302.451538,535.328430 289.634369,509.876526 285.091888,480.989807 
	C283.951691,473.738739 283.491272,466.498718 284.818390,459.154633 
	C287.810547,442.596649 299.475098,435.278870 315.546234,440.493103 
	C331.006683,445.509247 341.223206,456.715240 349.189728,470.270264 
	C351.717194,474.570709 353.756287,479.156036 356.080688,483.578491 
	C358.754242,488.665192 360.524902,488.912079 363.849152,484.323883 
	C374.592102,469.495941 387.791351,457.060913 401.681244,445.310028 
	C404.746521,442.716797 407.810883,438.805267 412.564606,441.084076 
	C417.252563,443.331299 415.956818,448.123260 416.358978,452.176208 
	C416.933807,457.969360 415.007416,462.008667 410.275879,465.854767 
	C396.953430,476.684143 384.717804,488.748779 373.596710,501.856934 
	C369.749573,506.391479 365.460175,508.551117 359.356049,508.455139 
	C350.211304,508.311371 341.046631,508.963379 331.901276,509.472107 
	C323.291595,509.951050 320.682587,513.486023 322.788544,521.949158 
	C326.696350,537.653320 334.637939,551.577820 342.598114,565.437256 
	C347.490112,573.954590 352.873444,582.191467 358.098419,590.515198 
	C363.827881,599.642517 369.563416,601.771973 379.644897,598.293335 
	C382.260651,597.390747 384.384674,597.586487 386.747192,598.895874 
	C416.100037,615.164978 447.629181,624.912170 480.758240,629.427551 
	C504.652771,632.684326 528.519043,631.973145 552.377869,628.007629 
	C578.163269,623.721924 603.155640,617.143066 626.537354,605.228088 
	C632.467957,602.205933 638.156250,598.711975 644.019226,595.552246 
	C649.112976,592.807068 650.755798,593.017090 653.112244,598.157837 
	C656.176941,604.843811 660.787292,607.006653 668.102173,606.938416 
	C704.098816,606.602539 740.100281,606.812073 776.099915,606.754639 
	C779.588989,606.749084 784.557434,607.734863 784.579468,602.410583 
	C784.602722,596.800293 779.453918,598.341675 776.118896,598.330017 
	C744.786194,598.220398 713.453003,598.250244 682.119995,598.234314 
	C679.953613,598.233215 677.780396,598.291260 675.622192,598.145752 
	C668.220032,597.646545 665.828979,593.259033 669.863464,587.130066 
	C678.205444,574.457336 686.263733,561.637451 692.968018,547.995483 
	C696.945557,539.901978 700.322388,531.583618 702.773926,522.921265 
	C705.609253,512.902832 703.080383,509.635254 692.850647,509.351379 
	C682.695129,509.069550 672.544983,508.568451 662.388428,508.354553 
	C658.662170,508.276062 656.130981,506.407593 653.859436,503.852539 
	C649.542053,498.996246 645.275818,494.094299 640.938293,489.256165 
	C639.638428,487.806244 638.415222,486.174744 635.660095,485.389313 
	C635.209656,492.296906 634.653503,498.844910 634.380127,505.404694 
	C633.665771,522.542725 633.053894,539.685242 632.465393,556.828186 
	C632.400391,558.722473 631.470276,561.173889 633.692322,562.282166 
	C635.630676,563.248962 636.997009,561.285095 638.435059,560.238953 
	C643.830750,556.313782 649.033081,552.152710 653.776306,547.446106 
	C655.406372,545.828674 657.130676,544.263977 658.093750,541.797729 
	C654.749512,539.532898 651.176025,540.442261 647.821228,540.349426 
	C640.724731,540.153137 638.844177,538.451599 638.663513,531.573120 
	C638.269592,516.572998 639.094910,515.702209 654.050049,515.668152 
	C663.716614,515.646118 673.383423,515.651123 683.049805,515.703308 
	C693.011536,515.757080 695.769470,520.389343 690.697754,529.060791 
	C675.985291,554.215637 656.710510,575.066406 631.838867,590.503540 
	C627.171997,593.400146 622.453003,596.257263 617.549744,598.717407 
	C611.233521,601.886475 607.556091,599.471680 607.628479,592.366028 
	C607.944336,561.387390 609.363708,530.442688 610.525513,499.489288 
	C611.100159,484.177490 611.328003,468.852631 611.711243,453.533661 
	C611.748779,452.034210 611.721741,450.530945 611.819031,449.035614 
	C611.995117,446.330109 612.274536,443.514465 615.040833,442.159760 
	C617.803772,440.806641 620.363525,442.135010 622.448364,443.825714 
	C636.858582,455.511627 650.244690,468.217590 661.137634,483.355225 
	C662.453979,485.184601 663.203613,487.955505 666.105896,487.622223 
	C668.676331,487.327087 669.096130,484.724487 669.937927,482.813171 
	C676.777466,467.284882 685.734009,453.436401 700.651123,444.413788 
	C708.449890,439.696747 716.761902,437.286621 725.938110,439.838776 
	C733.409973,441.916901 737.614990,447.123962 739.911072,454.217133 
	C743.487488,465.265747 741.847778,476.306244 739.716980,487.297211 
	C736.974365,501.443787 731.440674,514.681396 726.050720,527.951721 
	C723.282532,534.767212 723.542725,535.071350 730.795410,536.717346 
	C759.480225,543.227356 787.397278,551.887878 813.093689,566.635315 
	C821.368591,571.384338 829.056824,576.911377 836.010193,583.994080 
M713.500671,586.692078 
	C727.327148,586.691345 741.153748,586.718140 754.980103,586.675354 
	C760.003723,586.659790 763.742310,584.233032 763.469055,580.866882 
	C763.076294,576.026917 759.290710,575.428162 755.420410,575.399963 
	C738.827698,575.279236 722.077515,576.756348 706.140869,570.265015 
	C703.682007,569.263428 701.555298,570.117493 699.879639,572.063232 
	C697.708069,574.584656 695.370056,577.002869 693.505859,579.739380 
	C690.750916,583.783569 692.126099,586.444031 697.010803,586.625061 
	C702.168030,586.816223 707.337219,586.683167 713.500671,586.692078 
z"/>
<path fill="#000000" opacity="1.000000" stroke="none" 
	d="
M596.242065,410.793091 
	C556.875793,389.837677 515.666077,385.901215 472.792816,394.701080 
	C448.263153,399.735840 425.856110,409.575562 405.962616,424.761139 
	C396.290894,432.144043 388.220856,441.350372 379.652771,449.963562 
	C376.011505,453.623993 372.467896,457.362122 368.430939,460.614563 
	C365.949524,462.613770 363.428436,464.259064 360.315491,462.415070 
	C357.164581,460.548615 356.816956,457.483368 357.328033,454.099548 
	C359.705353,438.359680 366.027527,424.096283 373.910034,410.493744 
	C381.569702,397.275757 391.443359,385.834717 403.110199,375.947815 
	C410.217560,369.924744 411.102997,365.279572 407.019348,356.150238 
	C396.282471,332.147339 409.238770,306.234436 434.965729,301.232574 
	C449.642578,298.379059 462.796082,302.769348 472.161194,314.386505 
	C478.960815,322.821198 486.432678,325.019714 496.637390,323.221313 
	C507.308044,321.340820 518.198669,321.447968 528.956970,323.356293 
	C539.010803,325.139618 547.053650,323.242676 554.029114,314.496948 
	C563.898132,302.123291 577.734497,297.970062 593.085571,301.926178 
	C608.388855,305.870026 618.062927,316.098724 621.633850,331.610352 
	C623.484070,339.647430 622.024841,347.433136 618.898193,355.018463 
	C614.081848,366.703369 614.805359,368.674500 624.223572,376.877686 
	C646.520325,396.298035 660.868652,420.591187 667.830078,449.267059 
	C668.410217,451.656738 668.307068,454.223480 668.418823,456.712585 
	C668.528625,459.157745 668.041809,461.397217 665.578064,462.622284 
	C663.035889,463.886322 660.637817,463.273071 658.547302,461.681122 
	C654.562927,458.646912 651.108826,455.032532 647.659119,451.408051 
	C632.539001,435.521942 616.051331,421.348633 596.242065,410.793091 
M459.303711,358.830536 
	C469.923187,348.957214 471.883789,334.548462 464.161316,323.131683 
	C456.720215,312.130920 441.724945,308.373596 429.532867,314.454834 
	C417.658936,320.377441 411.379456,334.602173 415.479004,346.938202 
	C421.746948,365.799042 445.489227,370.115326 459.303711,358.830536 
M588.490784,311.981110 
	C577.065674,310.005463 566.713745,314.699097 560.832642,324.521454 
	C555.250366,333.844757 555.855042,346.141785 562.310120,354.569061 
	C568.926514,363.206940 581.409180,367.171631 591.931274,363.977203 
	C604.144592,360.269348 611.378052,350.437225 611.071350,337.960693 
	C610.768188,325.628723 602.097534,315.361786 588.490784,311.981110 
z"/>
<path fill="#000000" opacity="1.000000" stroke="none" 
	d="
M427.691528,577.086853 
	C426.383606,543.495728 425.043518,510.392212 423.803558,477.284973 
	C423.323669,464.471649 423.225342,451.642883 422.650696,438.834717 
	C422.352264,432.182404 425.164307,427.654663 430.741486,424.545593 
	C451.826904,412.791168 474.510254,405.980682 498.370544,402.953949 
	C504.607758,402.162750 507.340759,404.759277 507.348907,411.191284 
	C507.391724,445.015564 507.382904,478.839996 507.340302,512.664307 
	C507.333435,518.125122 504.319702,521.494934 498.829437,521.730225 
	C493.686127,521.950684 488.515900,521.438232 483.357941,521.450012 
	C477.540009,521.463318 476.922852,522.499695 478.929382,527.937439 
	C488.552094,554.015320 498.234924,580.071472 507.726562,606.196960 
	C510.627502,614.181763 506.481628,619.621338 497.992371,619.600769 
	C485.335114,619.570068 485.235565,619.465149 480.815948,607.637390 
	C472.191650,584.557068 463.539368,561.487061 454.852081,538.430359 
	C454.186615,536.664246 453.702240,534.703979 451.863281,533.076172 
	C450.734802,536.971497 451.866272,540.382019 451.939606,543.789917 
	C452.344604,562.605408 452.828125,581.419373 453.175354,600.235901 
	C453.312927,607.691406 450.568695,610.091980 443.110840,609.481934 
	C440.468933,609.265808 437.775330,609.460022 435.280121,608.222900 
	C431.434082,606.315979 428.861298,603.535034 428.659210,599.026001 
	C428.338745,591.875000 428.019257,584.723999 427.691528,577.086853 
M448.957336,450.094299 
	C449.381775,463.900208 449.960022,477.704163 450.137451,491.513245 
	C450.191071,495.687531 451.628601,497.075073 455.673126,496.951569 
	C462.493378,496.743256 469.327850,496.805450 476.151184,496.968750 
	C480.082306,497.062836 481.876892,495.742462 481.841431,491.512329 
	C481.692169,473.696869 481.681305,455.878693 481.835846,438.063354 
	C481.875793,433.458221 479.721558,432.535431 475.928528,433.480042 
	C467.842010,435.493866 459.986481,438.181519 452.352509,441.555206 
	C448.747284,443.148499 447.897186,445.713898 448.957336,450.094299 
z"/>
<path fill="#000000" opacity="1.000000" stroke="none" 
	d="
M577.699707,612.988525 
	C564.114136,615.899353 550.882751,618.426086 537.448120,619.705688 
	C533.974243,620.036560 530.483643,620.365051 526.999695,620.376892 
	C521.400513,620.395874 519.047119,618.192383 518.806580,612.635864 
	C518.590637,607.647644 518.686035,602.644714 518.688293,597.648315 
	C518.716309,536.356262 518.752441,475.064270 518.786560,413.772247 
	C518.786865,413.272583 518.784851,412.772888 518.789368,412.273254 
	C518.864075,404.003876 521.305359,401.766296 529.464966,402.873077 
	C541.695435,404.532104 553.680664,407.285858 565.345032,411.368530 
	C576.510498,415.276581 587.608032,419.274231 597.358521,426.283203 
	C601.687195,429.394836 603.655151,433.188293 603.366516,438.570221 
	C601.967102,464.659241 600.703125,490.755707 599.454285,516.852600 
	C598.324951,540.455444 597.277100,564.062134 596.194946,587.667236 
	C596.172119,588.166260 596.169373,588.666199 596.158447,589.165710 
	C595.669617,611.606201 594.975281,607.549988 577.699707,612.988525 
M544.186462,507.499939 
	C544.186218,509.830902 544.186035,512.161865 544.185791,514.492798 
	C544.183105,538.467896 544.253479,562.443420 544.111023,586.417725 
	C544.084961,590.805603 545.497375,592.558533 549.951172,591.814331 
	C555.684265,590.856445 561.450134,590.086060 567.213318,589.320740 
	C570.685364,588.859619 571.829590,587.021240 571.748718,583.545715 
	C571.601624,577.226990 571.796814,570.892334 572.060364,564.573242 
	C573.571411,528.346008 575.347900,492.128357 576.595337,455.892395 
	C577.085999,441.638153 579.623230,444.567566 564.622437,438.284821 
	C558.411926,435.683716 552.039917,433.194977 544.181946,432.739288 
	C544.181946,457.686829 544.181946,482.093384 544.186462,507.499939 
z"/>
<path fill="#000000" opacity="1.000000" stroke="none" 
	d="
M414.538300,527.236450 
	C412.765228,533.260803 409.005859,535.368042 403.161774,535.188354 
	C392.516632,534.861084 381.856750,534.988220 371.203033,534.982666 
	C369.254944,534.981628 367.217163,534.526306 365.268280,535.697998 
	C365.057159,538.323853 367.070282,539.870544 368.359558,541.664734 
	C376.042786,552.357056 384.509827,562.408264 393.714935,571.820435 
	C396.168610,574.329285 397.751587,576.938354 397.405121,580.637817 
	C396.757935,587.547241 390.583282,590.717346 384.892914,586.756897 
	C377.145111,581.364563 371.451691,573.884705 365.416565,566.806763 
	C355.263275,554.898987 345.664551,542.547729 336.979523,529.513794 
	C335.880280,527.864136 334.816650,526.107727 334.180115,524.248901 
	C332.493164,519.322266 334.764923,515.774719 339.923584,515.742676 
	C362.062866,515.605225 384.203674,515.581116 406.343079,515.687683 
	C411.926331,515.714539 415.224335,520.460144 414.538300,527.236450 
z"/>
<path fill="#000000" opacity="1.000000" stroke="none" 
	d="
M258.089111,571.189087 
	C250.802246,569.858215 243.942230,568.601990 237.092331,567.292786 
	C235.794708,567.044739 234.486008,566.709778 233.269913,566.204468 
	C227.138123,563.656738 226.315033,558.314697 231.647903,554.365051 
	C240.452744,547.843872 250.823853,545.395630 261.386688,543.710571 
	C276.877777,541.239380 289.804230,547.050354 301.253662,556.785522 
	C309.162994,563.510559 307.803802,569.587830 298.107422,573.333374 
	C291.710205,575.804504 285.342834,576.440613 278.596588,574.916687 
	C271.966095,573.418884 265.216675,572.447571 258.089111,571.189087 
z"/>
<path fill="#000000" opacity="1.000000" stroke="none" 
	d="
M457.914368,348.642853 
	C449.193115,358.595795 438.571533,360.438568 429.438812,353.868164 
	C423.735260,349.764832 421.005127,342.110504 423.183319,335.609314 
	C428.008148,337.812500 433.030212,339.617523 436.558350,333.670105 
	C439.500916,328.709808 435.241547,326.167206 432.606171,323.210663 
	C436.449219,318.427216 445.113098,318.168091 452.094086,322.513489 
	C460.903137,327.996765 463.194000,337.821075 457.914368,348.642853 
z"/>
<path fill="#000000" opacity="1.000000" stroke="none" 
	d="
M565.158325,334.692017 
	C569.171875,321.022430 582.651245,315.308685 592.952637,322.879272 
	C590.443909,326.279816 586.074402,329.429016 589.593384,334.412903 
	C593.246155,339.586304 597.922668,337.741180 602.335571,335.300385 
	C604.325989,342.556946 602.018005,349.248657 595.975220,353.785431 
	C589.514221,358.636261 582.456543,359.130432 575.334106,355.447388 
	C567.110229,351.194794 564.076599,344.101746 565.158325,334.692017 
z"/>
</svg>